<svg xmlns="http://www.w3.org/2000/svg" viewBox="0 0 913 913">
  <circle cx="456.5" cy="456.5" r="456.5" fill="hsl(224, 76%, 6%)" />
	
  <path d="M 453.6 5  l 5.7 0  l 0 28.5  l -5.7 0  l 0 -28.5  z" fill="hsl(0, 100%, 50%)" transform="rotate(0 456.1 456.1)" />
  <path d="M 453.6 5  l 5.7 0  l 0 17.1  l -5.7 0  l 0 -17.1  z" fill="hsl(6, 100%, 50%)" transform="rotate(6 456.1 456.1)" />
  <path d="M 453.6 5  l 5.7 0  l 0 17.1  l -5.7 0  l 0 -17.1  z" fill="hsl(12, 100%, 50%)" transform="rotate(12 456.1 456.1)" />
  <path d="M 453.6 5  l 5.7 0  l 0 17.1  l -5.7 0  l 0 -17.1  z" fill="hsl(18, 100%, 50%)" transform="rotate(18 456.1 456.1)" />
  <path d="M 453.6 5  l 5.7 0  l 0 17.1  l -5.7 0  l 0 -17.1  z" fill="hsl(24, 100%, 50%)" transform="rotate(24 456.1 456.1)" />
  <path d="M 453.6 5  l 5.7 0  l 0 28.5  l -5.7 0  l 0 -28.5  z" fill="hsl(30, 100%, 50%)" transform="rotate(30 456.1 456.1)" />
  <path d="M 453.6 5  l 5.7 0  l 0 17.1  l -5.7 0  l 0 -17.1  z" fill="hsl(36, 100%, 50%)" transform="rotate(36 456.1 456.1)" />
  <path d="M 453.6 5  l 5.7 0  l 0 17.1  l -5.7 0  l 0 -17.1  z" fill="hsl(42, 100%, 50%)" transform="rotate(42 456.1 456.1)" />
  <path d="M 453.6 5  l 5.7 0  l 0 17.1  l -5.7 0  l 0 -17.1  z" fill="hsl(48, 100%, 50%)" transform="rotate(48 456.1 456.1)" />
  <path d="M 453.6 5  l 5.7 0  l 0 17.1  l -5.7 0  l 0 -17.1  z" fill="hsl(54, 100%, 50%)" transform="rotate(54 456.1 456.1)" />
  <path d="M 453.6 5  l 5.7 0  l 0 28.5  l -5.7 0  l 0 -28.5  z" fill="hsl(60, 100%, 50%)" transform="rotate(60 456.1 456.1)" />
  <path d="M 453.6 5  l 5.7 0  l 0 17.1  l -5.7 0  l 0 -17.1  z" fill="hsl(66, 100%, 50%)" transform="rotate(66 456.1 456.1)" />
  <path d="M 453.6 5  l 5.7 0  l 0 17.1  l -5.7 0  l 0 -17.1  z" fill="hsl(72, 100%, 50%)" transform="rotate(72 456.1 456.1)" />
  <path d="M 453.6 5  l 5.7 0  l 0 17.1  l -5.7 0  l 0 -17.1  z" fill="hsl(78, 100%, 50%)" transform="rotate(78 456.1 456.1)" />
  <path d="M 453.6 5  l 5.7 0  l 0 17.1  l -5.7 0  l 0 -17.1  z" fill="hsl(84, 100%, 50%)" transform="rotate(84 456.1 456.1)" />
  <path d="M 453.6 5  l 5.7 0  l 0 28.5  l -5.7 0  l 0 -28.5  z" fill="hsl(90, 100%, 50%)" transform="rotate(90 456.1 456.1)" />
  <path d="M 453.6 5  l 5.7 0  l 0 17.1  l -5.7 0  l 0 -17.1  z" fill="hsl(96, 100%, 50%)" transform="rotate(96 456.1 456.1)" />
  <path d="M 453.6 5  l 5.7 0  l 0 17.1  l -5.7 0  l 0 -17.1  z" fill="hsl(102, 100%, 50%)" transform="rotate(102 456.1 456.1)" />
  <path d="M 453.6 5  l 5.7 0  l 0 17.1  l -5.7 0  l 0 -17.1  z" fill="hsl(108, 100%, 50%)" transform="rotate(108 456.1 456.1)" />
  <path d="M 453.6 5  l 5.7 0  l 0 17.1  l -5.7 0  l 0 -17.1  z" fill="hsl(114, 100%, 50%)" transform="rotate(114 456.1 456.1)" />
  <path d="M 453.6 5  l 5.7 0  l 0 28.5  l -5.7 0  l 0 -28.5  z" fill="hsl(120, 100%, 50%)" transform="rotate(120 456.1 456.1)" />
  <path d="M 453.6 5  l 5.7 0  l 0 17.1  l -5.7 0  l 0 -17.1  z" fill="hsl(125.99999999999999, 100%, 50%)" transform="rotate(125.99999999999999 456.1 456.1)" />
  <path d="M 453.6 5  l 5.7 0  l 0 17.1  l -5.7 0  l 0 -17.1  z" fill="hsl(132, 100%, 50%)" transform="rotate(132 456.1 456.1)" />
  <path d="M 453.6 5  l 5.7 0  l 0 17.1  l -5.7 0  l 0 -17.1  z" fill="hsl(138, 100%, 50%)" transform="rotate(138 456.1 456.1)" />
  <path d="M 453.6 5  l 5.7 0  l 0 17.1  l -5.7 0  l 0 -17.1  z" fill="hsl(144, 100%, 50%)" transform="rotate(144 456.1 456.1)" />
  <path d="M 453.6 5  l 5.7 0  l 0 28.5  l -5.7 0  l 0 -28.5  z" fill="hsl(150, 100%, 50%)" transform="rotate(150 456.1 456.1)" />
  <path d="M 453.6 5  l 5.7 0  l 0 17.1  l -5.7 0  l 0 -17.1  z" fill="hsl(156, 100%, 50%)" transform="rotate(156 456.1 456.1)" />
  <path d="M 453.6 5  l 5.7 0  l 0 17.1  l -5.7 0  l 0 -17.1  z" fill="hsl(162, 100%, 50%)" transform="rotate(162 456.1 456.1)" />
  <path d="M 453.6 5  l 5.7 0  l 0 17.1  l -5.7 0  l 0 -17.1  z" fill="hsl(168, 100%, 50%)" transform="rotate(168 456.1 456.1)" />
  <path d="M 453.6 5  l 5.7 0  l 0 17.1  l -5.7 0  l 0 -17.1  z" fill="hsl(174, 100%, 50%)" transform="rotate(174 456.1 456.1)" />
  <path d="M 453.6 5  l 5.7 0  l 0 28.5  l -5.7 0  l 0 -28.5  z" fill="hsl(180, 100%, 50%)" transform="rotate(180 456.1 456.1)" />
  <path d="M 453.6 5  l 5.7 0  l 0 17.1  l -5.7 0  l 0 -17.1  z" fill="hsl(186.00000000000003, 100%, 50%)" transform="rotate(186.00000000000003 456.1 456.1)" />
  <path d="M 453.6 5  l 5.7 0  l 0 17.1  l -5.7 0  l 0 -17.1  z" fill="hsl(192, 100%, 50%)" transform="rotate(192 456.1 456.1)" />
  <path d="M 453.6 5  l 5.7 0  l 0 17.1  l -5.7 0  l 0 -17.1  z" fill="hsl(198.00000000000003, 100%, 50%)" transform="rotate(198.00000000000003 456.1 456.1)" />
  <path d="M 453.6 5  l 5.7 0  l 0 17.1  l -5.7 0  l 0 -17.1  z" fill="hsl(204, 100%, 50%)" transform="rotate(204 456.1 456.1)" />
  <path d="M 453.6 5  l 5.7 0  l 0 28.5  l -5.7 0  l 0 -28.5  z" fill="hsl(210, 100%, 50%)" transform="rotate(210 456.1 456.1)" />
  <path d="M 453.6 5  l 5.7 0  l 0 17.1  l -5.7 0  l 0 -17.1  z" fill="hsl(216, 100%, 50%)" transform="rotate(216 456.1 456.1)" />
  <path d="M 453.6 5  l 5.7 0  l 0 17.1  l -5.7 0  l 0 -17.1  z" fill="hsl(222, 100%, 50%)" transform="rotate(222 456.1 456.1)" />
  <path d="M 453.6 5  l 5.7 0  l 0 17.1  l -5.7 0  l 0 -17.1  z" fill="hsl(228, 100%, 50%)" transform="rotate(228 456.1 456.1)" />
  <path d="M 453.6 5  l 5.7 0  l 0 17.1  l -5.7 0  l 0 -17.1  z" fill="hsl(234, 100%, 50%)" transform="rotate(234 456.1 456.1)" />
  <path d="M 453.6 5  l 5.7 0  l 0 28.5  l -5.7 0  l 0 -28.5  z" fill="hsl(240, 100%, 50%)" transform="rotate(240 456.1 456.1)" />
  <path d="M 453.6 5  l 5.7 0  l 0 17.1  l -5.7 0  l 0 -17.1  z" fill="hsl(246, 100%, 50%)" transform="rotate(246 456.1 456.1)" />
  <path d="M 453.6 5  l 5.7 0  l 0 17.1  l -5.7 0  l 0 -17.1  z" fill="hsl(251.99999999999997, 100%, 50%)" transform="rotate(251.99999999999997 456.1 456.1)" />
  <path d="M 453.6 5  l 5.7 0  l 0 17.1  l -5.7 0  l 0 -17.1  z" fill="hsl(258, 100%, 50%)" transform="rotate(258 456.1 456.1)" />
  <path d="M 453.6 5  l 5.7 0  l 0 17.1  l -5.7 0  l 0 -17.1  z" fill="hsl(264, 100%, 50%)" transform="rotate(264 456.1 456.1)" />
  <path d="M 453.6 5  l 5.7 0  l 0 28.5  l -5.7 0  l 0 -28.5  z" fill="hsl(270, 100%, 50%)" transform="rotate(270 456.1 456.1)" />
  <path d="M 453.6 5  l 5.7 0  l 0 17.1  l -5.7 0  l 0 -17.1  z" fill="hsl(276, 100%, 50%)" transform="rotate(276 456.1 456.1)" />
  <path d="M 453.6 5  l 5.7 0  l 0 17.1  l -5.7 0  l 0 -17.1  z" fill="hsl(282, 100%, 50%)" transform="rotate(282 456.1 456.1)" />
  <path d="M 453.6 5  l 5.7 0  l 0 17.1  l -5.7 0  l 0 -17.1  z" fill="hsl(288, 100%, 50%)" transform="rotate(288 456.1 456.1)" />
  <path d="M 453.6 5  l 5.7 0  l 0 17.1  l -5.7 0  l 0 -17.1  z" fill="hsl(294, 100%, 50%)" transform="rotate(294 456.1 456.1)" />
  <path d="M 453.6 5  l 5.7 0  l 0 28.5  l -5.7 0  l 0 -28.5  z" fill="hsl(300, 100%, 50%)" transform="rotate(300 456.1 456.1)" />
  <path d="M 453.6 5  l 5.7 0  l 0 17.1  l -5.7 0  l 0 -17.1  z" fill="hsl(306, 100%, 50%)" transform="rotate(306 456.1 456.1)" />
  <path d="M 453.6 5  l 5.7 0  l 0 17.1  l -5.7 0  l 0 -17.1  z" fill="hsl(312, 100%, 50%)" transform="rotate(312 456.1 456.1)" />
  <path d="M 453.6 5  l 5.7 0  l 0 17.1  l -5.7 0  l 0 -17.1  z" fill="hsl(318, 100%, 50%)" transform="rotate(318 456.1 456.1)" />
  <path d="M 453.6 5  l 5.7 0  l 0 17.1  l -5.7 0  l 0 -17.1  z" fill="hsl(324, 100%, 50%)" transform="rotate(324 456.1 456.1)" />
  <path d="M 453.6 5  l 5.7 0  l 0 28.5  l -5.7 0  l 0 -28.5  z" fill="hsl(330, 100%, 50%)" transform="rotate(330 456.1 456.1)" />
  <path d="M 453.6 5  l 5.7 0  l 0 17.1  l -5.7 0  l 0 -17.1  z" fill="hsl(336, 100%, 50%)" transform="rotate(336 456.1 456.1)" />
  <path d="M 453.6 5  l 5.7 0  l 0 17.1  l -5.7 0  l 0 -17.1  z" fill="hsl(342, 100%, 50%)" transform="rotate(342 456.1 456.1)" />
  <path d="M 453.6 5  l 5.7 0  l 0 17.1  l -5.7 0  l 0 -17.1  z" fill="hsl(348, 100%, 50%)" transform="rotate(348 456.1 456.1)" />
  <path d="M 453.6 5  l 5.7 0  l 0 17.1  l -5.7 0  l 0 -17.1  z" fill="hsl(354, 100%, 50%)" transform="rotate(354 456.1 456.1)" />
  
  <g transform="rotate(30 456.1 456.1)" fill="silver">
    <text x="435" y="95.5" fill="hsl(30, 100%, 50%)" font-family="sans-serif" font-size="73px" transform="rotate(-30 456.1 67)">1</text>
  </g>
  <g transform="rotate(60 456.1 456.1)" fill="silver">
    <text x="435" y="95.5" fill="hsl(60, 100%, 50%)" font-family="sans-serif" font-size="73px" transform="rotate(-60 456.1 67)">2</text>
  </g>
  <g transform="rotate(90 456.1 456.1)" fill="silver">
    <text x="435" y="95.5" fill="hsl(90, 100%, 50%)" font-family="sans-serif" font-size="73px" transform="rotate(-90 456.1 67)">3</text>
  </g>
  <g transform="rotate(120 456.1 456.1)" fill="silver">
    <text x="435" y="95.5" fill="hsl(120, 100%, 50%)" font-family="sans-serif" font-size="73px" transform="rotate(-120 456.1 67)">4</text>
  </g>
  <g transform="rotate(150 456.1 456.1)" fill="silver">
    <text x="435" y="95.5" fill="hsl(150, 100%, 50%)" font-family="sans-serif" font-size="73px" transform="rotate(-150 456.1 67)">5</text>
  </g>
  <g transform="rotate(180 456.1 456.1)" fill="silver">
    <text x="435" y="95.5" fill="hsl(180, 100%, 50%)" font-family="sans-serif" font-size="73px" transform="rotate(-180 456.1 67)">6</text>
  </g>
  <g transform="rotate(210 456.1 456.1)" fill="silver">
    <text x="435" y="95.5" fill="hsl(210, 100%, 50%)" font-family="sans-serif" font-size="73px" transform="rotate(-210 456.1 67)">7</text>
  </g>
  <g transform="rotate(240 456.1 456.1)" fill="silver">
    <text x="435" y="95.5" fill="hsl(240, 100%, 50%)" font-family="sans-serif" font-size="73px" transform="rotate(-240 456.1 67)">8</text>
  </g>
  <g transform="rotate(270 456.1 456.1)" fill="silver">
    <text x="435" y="95.5" fill="hsl(270, 100%, 50%)" font-family="sans-serif" font-size="73px" transform="rotate(-270 456.1 67)">9</text>
  </g>
  <g transform="rotate(300 456.1 456.1)" fill="silver">
    <text x="417" y="95.5" fill="hsl(300, 100%, 50%)" font-family="sans-serif" font-size="73px" transform="rotate(-300 456.1 67)">10</text>
  </g>
  <g transform="rotate(330 456.1 456.1)" fill="silver">
    <text x="417" y="95.5" fill="hsl(330, 100%, 50%)" font-family="sans-serif" font-size="73px" transform="rotate(-330 456.1 67)">11</text>
  </g>
  <g transform="rotate(0 456.1 456.1)" fill="silver">
    <text x="417" y="95.5" fill="hsl(0, 100%, 50%)" font-family="sans-serif" font-size="73px" transform="rotate(-0 456.1 67)">12</text>
  </g>
  
  <path d="M 456.5 487 l 4 0 l 4 -30 l 0 -14 l -4 -306 l -2 -25 l -4 0 l -2 25 l -4 306 l 0 14 l 4 30 l 4 0 z" fill="hsl(305, 100%, 50%)" transform="rotate(305 456.1 456.1)" stroke="hsl(224, 76%, 0%)" />
  <path d="M 456.5 487 l 4 0 l 4 -30 l 0 -14 l -4 -380 l -2 -25 l -4 0 l -2 25 l -4 380 l 0 14 l 4 30 l 4 0 z" fill="hsl(63.2, 100%, 50%)" transform="rotate(63.2 456.1 456.1)" stroke="hsl(224, 76%, 0%)" />
  <path d="M 456.5 487 l 2 0 l 2 -30 l 0 -14 l -2 -380 l -1 -25 l -2 0 l -1 25 l -2 380 l 0 14 l 2 30 l 2 0 z" fill="hsl(192, 100%, 50%)" transform="rotate(192 456.1 456.1)" stroke="hsl(224, 76%, 0%)" />
  
  <circle cx="456.5" cy="456.5" r="15" fill="black" />
</svg>